<svg width="950" height="464" viewBox="0 0 950 464" fill="none" xmlns="http://www.w3.org/2000/svg">
<g id="undraw_undraw_undraw_website_o7n3_bucy_30uo 1" clip-path="url(#clip0_1_2)">
<path id="Vector" d="M0 418.39C0 419.33 1.07 420.08 2.41 420.08H947.44C948.77 420.08 949.85 419.33 949.85 418.39C949.85 417.45 948.78 416.7 947.44 416.7H2.41C1.08 416.7 0 417.45 0 418.39Z" fill="#2F2E43"/>
<path id="Vector_2" d="M789.19 420.78H162.66V17.31C162.66 7.77 170.42 0 179.97 0H771.88C781.42 0 789.19 7.76 789.19 17.31V420.78Z" fill="#2F2E41"/>
<path id="Vector_3" d="M841.34 463.64H108.95C106.42 463.64 104.35 462.07 103.66 459.63C102.98 457.2 103.93 454.77 106.09 453.46L163.18 418.63H789.4L789.58 418.74L844.3 453.51C846.41 454.85 847.33 457.27 846.63 459.68C845.93 462.08 843.86 463.64 841.36 463.64H841.34Z" fill="#DFDFDF"/>
<path id="Vector_4" d="M772.04 25.72H179.09V394.35H772.04V25.72Z" fill="white"/>
<path id="Vector_5" d="M794.9 441.5H159.09L190.52 416H764.9L794.9 441.5Z" fill="#2F2E41"/>
<path id="Vector_6" d="M626.31 458.64H324.83L336.26 441.5H614.88L626.31 458.64Z" fill="#2F2E41"/>
<path id="Vector_7" d="M653.28 171.49H621.87C619.14 171.49 616.92 169.27 616.92 166.54C616.92 163.81 619.14 161.59 621.87 161.59H653.28C656.01 161.59 658.23 163.81 658.23 166.54C658.23 169.27 656.01 171.49 653.28 171.49Z" fill="#DFDFDF"/>
<path id="Vector_8" d="M689.4 171.49H674.74C672.01 171.49 669.79 169.27 669.79 166.54C669.79 163.81 672.01 161.59 674.74 161.59H689.4C692.13 161.59 694.35 163.81 694.35 166.54C694.35 169.27 692.13 171.49 689.4 171.49Z" fill="#DFDFDF"/>
<g id="Line1">
<path id="Vector_9" d="M338.8 175.27H243.2C238.32 175.27 234.35 171.3 234.35 166.42C234.35 161.54 238.32 157.57 243.2 157.57H338.8C343.68 157.57 347.65 161.54 347.65 166.42C347.65 171.3 343.68 175.27 338.8 175.27Z" fill="#6000CB"/>
</g>
<g id="Line2">
<path id="Vector_10" d="M286.97 198.88H240.9C237.93 198.88 235.5 196.46 235.5 193.48C235.5 190.5 237.92 188.08 240.9 188.08H286.97C289.94 188.08 292.37 190.5 292.37 193.48C292.37 196.46 289.95 198.88 286.97 198.88Z" fill="#DFDFDF"/>
</g>
<path id="Vector_11" d="M540.95 220.19H239.74C236.77 220.19 234.34 217.77 234.34 214.79C234.34 211.81 236.76 209.39 239.74 209.39H540.95C543.92 209.39 546.35 211.81 546.35 214.79C546.35 217.77 543.93 220.19 540.95 220.19Z" fill="#DFDFDF"/>
<path id="Vector_12" d="M515.04 234.59H239.74C236.77 234.59 234.34 232.17 234.34 229.19C234.34 226.21 236.76 223.79 239.74 223.79H515.03C518 223.79 520.43 226.21 520.43 229.19C520.43 232.17 518.01 234.59 515.03 234.59H515.04Z" fill="#DFDFDF"/>
<path id="Vector_13" d="M838.74 152.18L824.02 157.02V135.82H837.38L838.74 152.18Z" fill="#F2A7AA"/>
<path id="Vector_14" d="M825.84 141.69C833.942 141.69 840.51 135.122 840.51 127.02C840.51 118.918 833.942 112.35 825.84 112.35C817.738 112.35 811.17 118.918 811.17 127.02C811.17 135.122 817.738 141.69 825.84 141.69Z" fill="#F2A7AA"/>
<path id="Vector_15" d="M829.87 125.57C827.41 125.5 825.8 123.01 824.85 120.75C823.9 118.48 822.91 115.88 820.64 114.94C818.78 114.17 815.49 119.34 814.02 117.97C812.49 116.54 813.98 109.16 815.61 107.84C817.24 106.52 819.46 106.26 821.56 106.16C826.67 105.92 831.82 106.34 836.83 107.38C839.93 108.03 843.12 109 845.36 111.24C848.19 114.08 848.92 118.37 849.12 122.38C849.33 126.48 849.09 130.78 847.1 134.36C845.11 137.95 840.93 140.6 836.93 139.68C836.53 137.5 836.93 135.27 837.09 133.06C837.24 130.85 837.09 128.47 835.74 126.71C834.39 124.95 831.51 124.26 829.94 125.82" fill="#36344E"/>
<path id="Vector_16" d="M833.88 388H820.09V407.56H833.88V388Z" fill="#F2A7AA"/>
<path id="Vector_17" d="M806.66 419.41C805.21 419.41 803.92 419.37 802.95 419.28C799.29 418.94 795.79 416.24 794.03 414.66C793.24 413.95 792.99 412.82 793.4 411.84C793.69 411.14 794.28 410.62 795.01 410.41L804.69 407.64L820.36 397.06L820.53 397.37C820.6 397.49 822.13 400.26 822.65 402.13C822.85 402.84 822.79 403.44 822.5 403.9C822.29 404.22 822.01 404.4 821.77 404.51C822.05 404.81 822.94 405.41 825.68 405.85C829.67 406.49 830.52 402.34 830.55 402.17L830.58 402.03L830.7 401.95C832.6 400.72 833.77 400.17 834.18 400.29C834.43 400.37 834.85 400.49 835.99 411.78C836.1 412.13 836.9 414.73 836.36 417.21C835.77 419.91 823.97 418.98 821.61 418.77C821.54 418.77 812.71 419.41 806.65 419.41H806.66Z" fill="#36344E"/>
<path id="Vector_18" d="M873.141 372.617L861.44 379.915L871.79 396.512L883.491 389.214L873.141 372.617Z" fill="#F2A7AA"/>
<path id="Vector_19" d="M857.61 416.73C855.99 416.73 854.5 416.54 853.44 416.35C852.4 416.17 851.58 415.34 851.41 414.29C851.29 413.54 851.51 412.79 852.02 412.22L858.77 404.75L866.47 387.48L866.78 387.65C866.9 387.71 869.67 389.25 871.1 390.57C871.64 391.07 871.91 391.6 871.9 392.15C871.9 392.53 871.75 392.84 871.61 393.05C872.01 393.15 873.08 393.19 875.64 392.11C879.37 390.54 877.89 386.57 877.83 386.4L877.78 386.27L877.84 386.14C878.81 384.09 879.5 383 879.91 382.89C880.16 382.82 880.59 382.71 887.52 391.68C887.8 391.92 889.85 393.7 890.71 396.1C891.64 398.7 881.13 404.16 879.02 405.23C878.95 405.28 867.96 413.27 863.45 415.54C861.66 416.44 859.54 416.72 857.61 416.72V416.73Z" fill="#36344E"/>
<path id="Vector_20" d="M844.04 224.38H805.43L801.93 260.3L817.26 393.01H836.97L829.09 316.36L861.06 385.56L878.58 373.3L853.61 308.7C853.61 308.7 862.53 252.42 855.52 238.4C848.51 224.38 844.04 224.38 844.04 224.38Z" fill="#36344E"/>
<path id="Vector_21" d="M863.24 226.57H801.92L820.32 147.3H847.03L863.24 226.57Z" fill="#AADCEC"/>
<path id="uuid-52db3307-ec3e-496d-a5d4-9d1f33ffc652-45-45-640" d="M786.69 145.73C785.71 140.91 787.5 136.5 790.69 135.89C793.88 135.28 797.25 138.69 798.23 143.52C798.65 145.44 798.58 147.43 798.04 149.33L801.92 169.82L791.9 171.4L789.14 151.04C787.9 149.49 787.06 147.67 786.69 145.73Z" fill="#F2A7AA"/>
<path id="Vector_22" d="M846.38 147.3H822.82L806.94 179.07L800.95 155.27L787.79 156.67C787.79 156.67 790.9 203.18 804.52 201.61C818.13 200.04 849.88 158.13 846.39 147.31L846.38 147.3Z" fill="#AADCEC"/>
<path id="uuid-2800d917-a06e-4fc6-b661-0f9df9cadefc-46-46-641" d="M872.7 268.11C873.68 272.93 871.89 277.34 868.7 277.95C865.51 278.56 862.14 275.15 861.16 270.32C860.74 268.4 860.81 266.41 861.35 264.51L857.47 244.02L867.49 242.44L870.25 262.8C871.49 264.35 872.33 266.17 872.7 268.11Z" fill="#F2A7AA"/>
<path id="Vector_23" d="M832.95 147.3C832.95 147.3 846.34 146.73 847.03 147.3C850.68 150.29 872.12 257.96 872.12 257.96H858.54L832.94 147.3H832.95Z" fill="#AADCEC"/>
</g>
<defs>
<clipPath id="clip0_1_2">
<rect width="949.85" height="463.64" fill="white"/>
</clipPath>
</defs>
</svg>
